<svg fill="#a3a3cd" xmlns="http://www.w3.org/2000/svg"  viewBox="0 0 24 24" width="30px" height="30px"><path d="M 4.6015625 2.0097656 C 4.4896682 1.9955114 4.3748666 1.9987069 4.2578125 2.0117188 C 4.2393668 2.0137692 4.22165 2.0128098 4.203125 2.015625 A 1.0001 1.0001 0 0 0 3.8183594 2.1308594 A 1.0001 1.0001 0 0 0 3.6132812 2.2753906 C 3.2209089 2.570649 3 3.07197 3 3.5039062 L 3 11.962891 L 3 20.591797 C 3 21.023612 3.2060969 21.575397 3.7011719 21.84375 C 4.1962469 22.112103 4.7565968 21.990383 5.125 21.767578 A 1.0001 1.0001 0 0 0 5.1269531 21.765625 C 5.0672511 21.802015 5.4034654 21.606356 5.828125 21.365234 C 6.2527846 21.124113 6.8432642 20.788637 7.5429688 20.392578 C 8.9423778 19.600461 10.781405 18.560853 12.623047 17.519531 C 14.464689 16.478209 16.309528 15.436624 17.71875 14.638672 C 18.423361 14.239696 19.018133 13.902329 19.451172 13.65625 C 19.883392 13.410637 20.096374 13.289977 20.226562 13.210938 C 20.61459 12.97567 21.007904 12.521488 21 11.935547 C 20.992096 11.349606 20.598021 10.922281 20.224609 10.710938 C 20.057495 10.616566 16.408571 8.5549722 12.757812 6.4902344 C 10.932435 5.4578655 9.1069336 4.4246785 7.7128906 3.6347656 C 7.0158692 3.2398092 6.4260201 2.90435 6 2.6621094 C 5.5739799 2.4198687 5.2525213 2.2341042 5.2851562 2.2539062 A 1.0001 1.0001 0 0 0 5.2832031 2.2539062 C 5.0861258 2.1348396 4.8520524 2.0416755 4.6015625 2.0097656 z M 5 5.3496094 L 10.755859 11.957031 L 5 18.566406 L 5 11.962891 L 5 5.3496094 z M 8.5957031 6.4335938 C 9.6377715 7.0232183 10.624109 7.5804499 11.773438 8.2304688 C 12.503025 8.6430974 12.617099 8.7076725 13.265625 9.0742188 L 12.082031 10.433594 L 8.5957031 6.4335938 z M 15.041016 10.076172 C 16.204841 10.733593 17.963716 11.728309 18.378906 11.962891 C 17.953471 12.20457 17.402558 12.518982 16.732422 12.898438 C 16.266824 13.162076 15.593801 13.543314 15.048828 13.851562 A 1.0001605 1.0001605 0 0 0 14.986328 13.767578 L 13.408203 11.957031 L 14.986328 10.144531 A 1.0001 1.0001 0 0 0 15.041016 10.076172 z M 12.082031 13.480469 L 13.277344 14.851562 C 12.698874 15.178623 12.23127 15.444224 11.638672 15.779297 C 10.52481 16.409109 9.5816405 16.943414 8.5664062 17.517578 L 12.082031 13.480469 z"/></svg>